<mxfile host="app.diagrams.net" modified="2023-04-02T09:01:11.358Z" agent="Mozilla/5.0 (Windows NT 10.0; Win64; x64) AppleWebKit/537.36 (KHTML, like Gecko) Chrome/111.0.0.0 Safari/537.36" etag="DHVl8Y5lFSZwFo0wcbMu" version="21.1.1" type="device">
  <diagram name="Page-1" id="ShqR4SE3vlVnO4p-Y0HR">
    <mxGraphModel dx="478" dy="757" grid="1" gridSize="10" guides="1" tooltips="1" connect="1" arrows="1" fold="1" page="1" pageScale="1" pageWidth="850" pageHeight="1100" math="0" shadow="0">
      <root>
        <mxCell id="0" />
        <mxCell id="1" parent="0" />
        <mxCell id="owfqv4xZAfImYMs66S6X-3" value="" style="edgeStyle=orthogonalEdgeStyle;rounded=0;orthogonalLoop=1;jettySize=auto;html=1;" parent="1" source="owfqv4xZAfImYMs66S6X-1" target="owfqv4xZAfImYMs66S6X-2" edge="1">
          <mxGeometry relative="1" as="geometry" />
        </mxCell>
        <mxCell id="owfqv4xZAfImYMs66S6X-5" value="" style="edgeStyle=orthogonalEdgeStyle;rounded=0;orthogonalLoop=1;jettySize=auto;html=1;" parent="1" source="owfqv4xZAfImYMs66S6X-1" target="owfqv4xZAfImYMs66S6X-4" edge="1">
          <mxGeometry relative="1" as="geometry" />
        </mxCell>
        <mxCell id="owfqv4xZAfImYMs66S6X-7" value="" style="edgeStyle=orthogonalEdgeStyle;rounded=0;orthogonalLoop=1;jettySize=auto;html=1;" parent="1" source="owfqv4xZAfImYMs66S6X-1" target="owfqv4xZAfImYMs66S6X-6" edge="1">
          <mxGeometry relative="1" as="geometry" />
        </mxCell>
        <mxCell id="owfqv4xZAfImYMs66S6X-1" value="Home" style="rounded=0;whiteSpace=wrap;html=1;" parent="1" vertex="1">
          <mxGeometry x="350" y="90" width="120" height="60" as="geometry" />
        </mxCell>
        <mxCell id="owfqv4xZAfImYMs66S6X-9" value="" style="edgeStyle=orthogonalEdgeStyle;rounded=0;orthogonalLoop=1;jettySize=auto;html=1;" parent="1" source="owfqv4xZAfImYMs66S6X-2" edge="1">
          <mxGeometry relative="1" as="geometry">
            <mxPoint x="410" y="370" as="targetPoint" />
          </mxGeometry>
        </mxCell>
        <mxCell id="owfqv4xZAfImYMs66S6X-15" style="edgeStyle=orthogonalEdgeStyle;rounded=0;orthogonalLoop=1;jettySize=auto;html=1;" parent="1" source="owfqv4xZAfImYMs66S6X-2" target="owfqv4xZAfImYMs66S6X-13" edge="1">
          <mxGeometry relative="1" as="geometry">
            <Array as="points">
              <mxPoint x="460" y="320" />
              <mxPoint x="490" y="320" />
            </Array>
          </mxGeometry>
        </mxCell>
        <mxCell id="owfqv4xZAfImYMs66S6X-16" value="" style="edgeStyle=orthogonalEdgeStyle;rounded=0;orthogonalLoop=1;jettySize=auto;html=1;" parent="1" source="owfqv4xZAfImYMs66S6X-2" target="owfqv4xZAfImYMs66S6X-4" edge="1">
          <mxGeometry relative="1" as="geometry" />
        </mxCell>
        <mxCell id="owfqv4xZAfImYMs66S6X-2" value="Blog" style="rounded=0;whiteSpace=wrap;html=1;" parent="1" vertex="1">
          <mxGeometry x="350" y="230" width="120" height="60" as="geometry" />
        </mxCell>
        <mxCell id="owfqv4xZAfImYMs66S6X-17" style="edgeStyle=orthogonalEdgeStyle;rounded=0;orthogonalLoop=1;jettySize=auto;html=1;" parent="1" source="owfqv4xZAfImYMs66S6X-4" target="owfqv4xZAfImYMs66S6X-12" edge="1">
          <mxGeometry relative="1" as="geometry" />
        </mxCell>
        <mxCell id="owfqv4xZAfImYMs66S6X-4" value="About" style="rounded=0;whiteSpace=wrap;html=1;" parent="1" vertex="1">
          <mxGeometry x="120" y="230" width="120" height="60" as="geometry" />
        </mxCell>
        <mxCell id="owfqv4xZAfImYMs66S6X-20" value="" style="edgeStyle=orthogonalEdgeStyle;rounded=0;orthogonalLoop=1;jettySize=auto;html=1;" parent="1" source="owfqv4xZAfImYMs66S6X-6" target="owfqv4xZAfImYMs66S6X-19" edge="1">
          <mxGeometry relative="1" as="geometry" />
        </mxCell>
        <mxCell id="owfqv4xZAfImYMs66S6X-6" value="Contact" style="rounded=0;whiteSpace=wrap;html=1;" parent="1" vertex="1">
          <mxGeometry x="630" y="230" width="150" height="60" as="geometry" />
        </mxCell>
        <mxCell id="owfqv4xZAfImYMs66S6X-13" value="Post 3" style="ellipse;whiteSpace=wrap;html=1;rounded=0;" parent="1" vertex="1">
          <mxGeometry x="450" y="350" width="80" height="80" as="geometry" />
        </mxCell>
        <mxCell id="owfqv4xZAfImYMs66S6X-29" value="" style="edgeStyle=orthogonalEdgeStyle;rounded=0;orthogonalLoop=1;jettySize=auto;html=1;" parent="1" source="owfqv4xZAfImYMs66S6X-19" target="owfqv4xZAfImYMs66S6X-28" edge="1">
          <mxGeometry relative="1" as="geometry" />
        </mxCell>
        <mxCell id="owfqv4xZAfImYMs66S6X-19" value="Blog" style="rounded=0;whiteSpace=wrap;html=1;" parent="1" vertex="1">
          <mxGeometry x="340" y="230" width="150" height="60" as="geometry" />
        </mxCell>
        <mxCell id="owfqv4xZAfImYMs66S6X-23" value="" style="endArrow=none;html=1;rounded=0;" parent="1" source="owfqv4xZAfImYMs66S6X-10" edge="1">
          <mxGeometry width="50" height="50" relative="1" as="geometry">
            <mxPoint x="340" y="389" as="sourcePoint" />
            <mxPoint x="470" y="389" as="targetPoint" />
          </mxGeometry>
        </mxCell>
        <mxCell id="owfqv4xZAfImYMs66S6X-25" value="" style="endArrow=none;html=1;rounded=0;" parent="1" source="owfqv4xZAfImYMs66S6X-12" target="owfqv4xZAfImYMs66S6X-10" edge="1">
          <mxGeometry width="50" height="50" relative="1" as="geometry">
            <mxPoint x="340" y="389" as="sourcePoint" />
            <mxPoint x="470" y="389" as="targetPoint" />
          </mxGeometry>
        </mxCell>
        <mxCell id="owfqv4xZAfImYMs66S6X-10" value="Post 2" style="ellipse;whiteSpace=wrap;html=1;rounded=0;" parent="1" vertex="1">
          <mxGeometry x="370" y="360" width="80" height="80" as="geometry" />
        </mxCell>
        <mxCell id="owfqv4xZAfImYMs66S6X-28" value="Post 4" style="ellipse;whiteSpace=wrap;html=1;rounded=0;" parent="1" vertex="1">
          <mxGeometry x="530" y="350" width="80" height="80" as="geometry" />
        </mxCell>
        <mxCell id="owfqv4xZAfImYMs66S6X-30" value="" style="endArrow=none;html=1;rounded=0;" parent="1" target="owfqv4xZAfImYMs66S6X-12" edge="1">
          <mxGeometry width="50" height="50" relative="1" as="geometry">
            <mxPoint x="340" y="389" as="sourcePoint" />
            <mxPoint x="370" y="390" as="targetPoint" />
          </mxGeometry>
        </mxCell>
        <mxCell id="owfqv4xZAfImYMs66S6X-12" value="Post 1" style="ellipse;whiteSpace=wrap;html=1;rounded=0;" parent="1" vertex="1">
          <mxGeometry x="290" y="350" width="80" height="80" as="geometry" />
        </mxCell>
        <mxCell id="owfqv4xZAfImYMs66S6X-33" value="Post 5" style="ellipse;whiteSpace=wrap;html=1;aspect=fixed;" parent="1" vertex="1">
          <mxGeometry x="610" y="360" width="80" height="80" as="geometry" />
        </mxCell>
      </root>
    </mxGraphModel>
  </diagram>
</mxfile>
